Coordinates
version=1
nRows=38
nColumns=12
inDegrees=yes

Units are S.I. units (second, meters, Newtons, ...)
Angles are in degrees

endheader
time	SC_y	SC_z	SC_x	AC_y	AC_z	AC_x	GH_y	GH_z	GH_yy	EL_x	PS_y
       0.0              -35.59          25.18          74.67          49.95         -5.262          4.201          84.74          48.61          145.8          66.46          29.17
   0.04476              -35.58          25.18          74.66          49.95         -5.264          4.202           84.7          48.61          145.8          66.47          29.18
   0.08951              -35.58          25.18          74.65          49.95         -5.266          4.204          84.67          48.61          145.8          66.48           29.2
    0.1343              -35.58          25.17          74.64          49.95         -5.268          4.206          84.64          48.61          145.8          66.49          29.21
     0.179              -35.58          25.17          74.63          49.95          -5.27          4.208           84.6          48.61          145.8           66.5          29.23
    0.2238              -35.57          25.17          74.62          49.95         -5.272           4.21          84.56          48.62          145.8          66.51          29.24
    0.2685              -35.57          25.17          74.61          49.95         -5.275          4.212          84.52          48.62          145.8          66.52          29.26
    0.3133              -35.57          25.17           74.6          49.95         -5.278          4.214          84.47          48.62          145.8          66.53          29.28
     0.358              -35.56          25.17          74.58          49.96         -5.281          4.217          84.42          48.63          145.8          66.54           29.3
    0.4028              -35.56          25.16          74.57          49.96         -5.284          4.219          84.37          48.63          145.7          66.56          29.32
    0.4476              -35.56          25.16          74.55          49.96         -5.287          4.222          84.31          48.63          145.7          66.57          29.35
    0.4923              -35.55          25.16          74.53          49.96         -5.291          4.226          84.25          48.64          145.7          66.59          29.37
    0.5371              -35.55          25.16          74.52          49.96         -5.295          4.229          84.19          48.64          145.7          66.61           29.4
    0.5818              -35.54          25.16           74.5          49.96         -5.299          4.233          84.11          48.64          145.7          66.63          29.43
    0.6266              -35.53          25.15          74.47          49.96         -5.304          4.236          84.04          48.65          145.6          66.65          29.46
    0.6713              -35.53          25.15          74.45          49.97         -5.309          4.241          83.95          48.65          145.6          66.67           29.5
    0.7161              -35.52          25.15          74.43          49.97         -5.314          4.245          83.86          48.66          145.6          66.69          29.54
    0.7608              -35.51          25.14           74.4          49.97          -5.32           4.25          83.77          48.66          145.6          66.72          29.58
    0.8056              -35.51          25.14          74.37          49.97         -5.326          4.256          83.66          48.67          145.5          66.75          29.62
    0.8504               -35.5          25.13          74.33          49.97         -5.333          4.262          83.54          48.68          145.5          66.78          29.67
    0.8951              -35.49          25.13           74.3          49.98         -5.341          4.269          83.41          48.69          145.4          66.82          29.73
    0.9399              -35.48          25.13          74.26          49.98          -5.35          4.276          83.27          48.69          145.4          66.85          29.79
    0.9846              -35.46          25.12          74.21          49.98         -5.359          4.284          83.11           48.7          145.4           66.9          29.86
     1.029              -35.45          25.11          74.16          49.99          -5.37          4.293          82.94          48.71          145.3          66.94          29.93
     1.074              -35.44          25.11          74.11          49.99         -5.381          4.303          82.75          48.73          145.2           67.0          30.01
     1.119              -35.42           25.1          74.05          49.99         -5.394          4.314          82.53          48.74          145.2          67.05           30.1
     1.164               -35.4          25.09          73.98           50.0         -5.409          4.326          82.29          48.75          145.1          67.12          30.21
     1.208              -35.38          25.08          73.91           50.0         -5.425           4.34          82.02          48.77          145.0          67.19          30.32
     1.253              -35.36          25.07          73.82          50.01         -5.443          4.356          81.71          48.79          144.9          67.28          30.45
     1.298              -35.33          25.06          73.72          50.02         -5.464          4.374          81.36          48.81          144.8          67.37           30.6
     1.343               -35.3          25.04          73.61          50.02         -5.488          4.394          80.96          48.83          144.7          67.48          30.77
     1.387              -35.27          25.03          73.48          50.03         -5.515          4.418          80.51          48.86          144.6           67.6          30.96
     1.432              -35.23          25.01          73.33          50.04         -5.547          4.445          79.98          48.89          144.4          67.74          31.18
     1.477              -35.18          24.98          73.16          50.06         -5.584          4.476          79.36          48.93          144.2          67.91          31.44
     1.522              -35.13          24.96          72.96          50.07         -5.627          4.513          78.65          48.97          144.0           68.1          31.75
     1.566              -35.06          24.93          72.72          50.09         -5.677          4.557           77.8          49.02          143.7          68.33          32.11
     1.611              -34.99          24.89          72.44          50.11         -5.738          4.608           76.8          49.08          143.4           68.6          32.53
     1.656               -34.9          24.85           72.1          50.13          -5.81           4.67          75.59          49.15          143.0          68.92          33.04
